<?xml version="1.0" encoding="UTF-8" standalone="no"?>
<svg
   xmlns:dc="http://purl.org/dc/elements/1.1/"
   xmlns:cc="http://creativecommons.org/ns#"
   xmlns:rdf="http://www.w3.org/1999/02/22-rdf-syntax-ns#"
   xmlns:svg="http://www.w3.org/2000/svg"
   xmlns="http://www.w3.org/2000/svg"
   xmlns:sodipodi="http://sodipodi.sourceforge.net/DTD/sodipodi-0.dtd"
   xmlns:inkscape="http://www.inkscape.org/namespaces/inkscape"
   id="svg8"
   version="1.1"
   viewBox="0 0 25.342285 25.341085"
   height="25.341085mm"
   width="25.342285mm"
   sodipodi:docname="logo-blue.svg"
   inkscape:version="0.92.5 (2060ec1f9f, 2020-04-08)">
  <sodipodi:namedview
     pagecolor="#ffffff"
     bordercolor="#666666"
     borderopacity="1"
     objecttolerance="10"
     gridtolerance="10"
     guidetolerance="10"
     inkscape:pageopacity="0"
     inkscape:pageshadow="2"
     inkscape:window-width="1536"
     inkscape:window-height="863"
     id="namedview8"
     showgrid="false"
     inkscape:zoom="2.4640486"
     inkscape:cx="2.234366"
     inkscape:cy="47.888665"
     inkscape:window-x="64"
     inkscape:window-y="0"
     inkscape:window-maximized="1"
     inkscape:current-layer="svg8" />
  <defs
     id="defs2" />
  <metadata
     id="metadata5">
    <rdf:RDF>
      <cc:Work
         rdf:about="">
        <dc:format>image/svg+xml</dc:format>
        <dc:type
           rdf:resource="http://purl.org/dc/dcmitype/StillImage" />
        <dc:title></dc:title>
      </cc:Work>
    </rdf:RDF>
  </metadata>
  <g
     transform="translate(-108.2803,-59.344729)"
     id="layer1"
     style="fill:#96bad9;fill-opacity:1"
     inkscape:export-filename="/home/juani/proyectos/stuckat/res/logo.png"
     inkscape:export-xdpi="1026.33"
     inkscape:export-ydpi="1026.33">
    <path
       id="path4588"
       transform="scale(0.26458333)"
       d="m 457.12695,224.29883 c -19.23352,-0.25561 -37.67045,12.45217 -44.54492,30.36914 -6.91007,16.88378 -2.82706,37.47828 9.92578,50.50586 12.39984,13.34336 32.73958,18.42875 49.9336,12.36133 18.39722,-6.03731 32.03507,-24.11745 32.53125,-43.51172 0.97542,-18.84645 -10.5307,-37.42623 -27.66016,-45.23242 -6.29046,-2.95727 -13.23507,-4.50076 -20.18555,-4.49219 z m 0,9.57617 c 17.67636,-0.3148 34.22962,13.27086 37.52344,30.61133 2.43027,10.8657 -0.60693,22.41887 -7.30078,31.14062 -2.25261,-2.25261 -4.5052,-4.5052 -6.75781,-6.75781 v 11.30469 h -2.24219 c 0.75395,0.75395 1.50775,1.50775 2.26172,2.26172 -1.88746,1.47348 -3.9182,2.77052 -6.08399,3.84179 -14.85365,7.95323 -34.63065,4.27759 -45.72265,-8.37695 -11.55617,-12.24892 -13.28091,-32.3123 -3.92578,-46.32617 0.62407,-0.98575 1.30986,-1.92839 2.02343,-2.84766 2.82251,2.8225 5.64449,5.64449 8.4668,8.4668 l 6.77344,-6.77344 c -2.81836,-2.81836 -5.63671,-5.63671 -8.45508,-8.45508 6.65681,-5.15232 14.96855,-8.16422 23.43945,-8.08984 z m 4.82813,49.9043 c 0.74737,0.74737 1.49481,1.49481 2.24219,2.24218 v -2.24218 z"
       style="stroke-width:4.78807211;fill:#96bad9;fill-opacity:1" />
    <polygon
       style="fill:#96bad9;fill-opacity:1"
       transform="matrix(0.28872012,0,0,0.28872012,111.53169,63.146235)"
       points="32,-0.32 0.68,31 11,31 11,55 25,55 25,41 38,41 38,55 52,55 52,31 63.319,31 "
       id="polygon4578" />
  </g>
</svg>
