<svg xmlns="http://www.w3.org/2000/svg" width="1240" height="1240"><path d="M582 1.122C382.107 12.538 192.143 128.64 87.252 303.5c-36.663 61.12-64.685 135.476-77.178 204.787C3.274 546.017.667 576.131.664 617c-.003 39.194 2.269 67.38 8.359 103.707 10.401 62.04 28.577 118.28 56.49 174.793 32.706 66.217 70.767 117.812 127.421 172.729 63.26 61.32 140.234 107.916 227.456 137.69 114.862 39.208 239.366 44.34 353.3 14.562 14.804-3.869 47.701-14.452 65.708-21.138 39.928-14.826 83.886-37.394 121.102-62.173 61.945-41.244 118.557-96.195 162.95-158.17 70.985-99.1 111.302-214.663 115.231-330.3.357-10.519 1.002-18.228 1.464-17.5.453.715.831-6.012.84-14.95.008-8.937-.365-16.25-.828-16.25-.464 0-1.131-7.087-1.482-15.75-2.086-51.494-14.625-113.648-33.763-167.371-46.045-129.249-133.296-241.045-245.972-315.165C848.986 29.383 714.689-6.456 582 1.122m4 123.479c-1.925.216-8.675.873-15 1.459-84.71 7.853-173.169 42.234-245.192 95.299l-9.693 7.141 54.69 54.751 54.69 54.751-43.746 43.747-43.747 43.746-54.783-54.776-54.782-54.776-9.181 12.424c-31.067 42.043-53.933 85.663-69.787 133.133-52.811 158.119-21.501 337.997 81.072 465.771 12.291 15.311 39.602 44.834 52.535 56.79 60.819 56.227 130.238 94.018 211.924 115.369 43.356 11.332 80.243 15.962 127.5 16.006 50.178.046 89.285-5.267 134.912-18.327 52.928-15.15 111.679-44.373 157.407-78.295l9.456-7.014-14.375-14.4-14.374-14.4H924V836.509l43.254 43.245c23.79 23.785 43.561 43.246 43.936 43.246.961 0 14.179-18.34 23.095-32.046 64.481-99.122 92.972-218.419 78.703-329.55-3.878-30.197-12.334-68.356-21.12-95.297C1057.292 360.081 985.258 267.39 888 203.774c-64.538-42.213-134.099-67.779-210.5-77.364-9.427-1.183-23.306-1.71-50.5-1.917-20.625-.156-39.075-.108-41 .108m-195.834 278.41L169.831 624H315v339h197V765h184v2.5c0 2.419-.218 2.5-6.723 2.5h-6.723l6.723 6.775L696 783.55V963h197V624h160.498L832.5 403C710.951 281.45 611.276 182.005 611.001 182.011c-.276.006-99.651 99.456-220.835 221M.407 617c0 9.075.152 12.788.337 8.25.185-4.538.185-11.962 0-16.5s-.337-.825-.337 8.25" fill="undefined" fill-rule="evenodd"/></svg>